<?xml version="1.0" encoding="UTF-8" standalone="no"?>
<svg
   xmlns:dc="http://purl.org/dc/elements/1.1/"
   xmlns:cc="http://creativecommons.org/ns#"
   xmlns:rdf="http://www.w3.org/1999/02/22-rdf-syntax-ns#"
   xmlns:svg="http://www.w3.org/2000/svg"
   xmlns="http://www.w3.org/2000/svg"
   xmlns:sodipodi="http://sodipodi.sourceforge.net/DTD/sodipodi-0.dtd"
   xmlns:inkscape="http://www.inkscape.org/namespaces/inkscape"
   inkscape:version="1.0 (4035a4f, 2020-05-01)"
   sodipodi:docname="nature.svg"
   version="1.1"
   width="512"
   viewBox="0 0 512 512"
   height="512"
   enable-background="new 0 0 512 512"
   id="Capa_1">
  <metadata
     id="metadata125">
    <rdf:RDF>
      <cc:Work
         rdf:about="">
        <dc:format>image/svg+xml</dc:format>
        <dc:type
           rdf:resource="http://purl.org/dc/dcmitype/StillImage" />
      </cc:Work>
    </rdf:RDF>
  </metadata>
  <defs
     id="defs123" />
  <sodipodi:namedview
     inkscape:current-layer="g58"
     inkscape:window-maximized="1"
     inkscape:window-y="23"
     inkscape:window-x="0"
     inkscape:cy="197.43558"
     inkscape:cx="344.52816"
     inkscape:zoom="1.0076745"
     showgrid="false"
     id="namedview121"
     inkscape:window-height="855"
     inkscape:window-width="1440"
     inkscape:pageshadow="2"
     inkscape:pageopacity="0"
     guidetolerance="10"
     gridtolerance="10"
     objecttolerance="10"
     borderopacity="1"
     bordercolor="#666666"
     pagecolor="#ffffff" />
  <g
     id="g118">
    <g
       style="fill:#0044aa"
       id="g24">
      <g
         style="fill:#0044aa"
         id="g22">
        <g
           style="fill:#0044aa"
           id="g12">
          <path
             style="fill:#0044aa"
             id="path10"
             fill="#0a5b36"
             d="m251.346 449.356c-4.146 0-7.508-3.361-7.508-7.508v-69.598c0-4.147 3.361-7.508 7.508-7.508s7.508 3.361 7.508 7.508v69.598c0 4.147-3.362 7.508-7.508 7.508z" />
        </g>
        <g
           style="fill:#0044aa"
           id="g16">
          <path
             style="fill:#0044aa"
             id="path14"
             fill="#0a5b36"
             d="m329.118 452.264c-4.147 0-7.508-3.361-7.508-7.508v-108.696c0-4.147 3.361-7.508 7.508-7.508s7.508 3.361 7.508 7.508v108.695c-.001 4.148-3.362 7.509-7.508 7.509z" />
        </g>
        <circle
           style="fill:#3771c8"
           id="circle18"
           r="67.218"
           fill="#0f7a4f"
           cy="317.045"
           cx="246.069" />
        <path
           style="fill:#0044aa"
           id="path20"
           fill="#0c6842"
           d="m313.288 317.048c0 37.119-30.099 67.218-67.218 67.218-15.839 0-30.399-5.48-41.889-14.65 6.03 1.78 12.41 2.73 19.019 2.73 37.119 0 67.208-30.099 67.208-67.218 0-21.28-9.89-40.259-25.319-52.568 27.86 8.2 48.199 33.969 48.199 64.488z" />
      </g>
    </g>
    <g
       style="fill:#0044aa"
       id="g30">
      <circle
         style="fill:#0044aa"
         id="circle26"
         r="67.218"
         fill="#158f5e"
         cy="156.451"
         cx="349.753" />
      <path
         style="fill:#0044aa"
         id="path28"
         fill="#0f7a4f"
         d="m416.975 156.453c0 37.119-30.099 67.218-67.218 67.218-5.37 0-10.59-.63-15.589-1.82 29.599-7.04 51.618-33.649 51.618-65.398 0-31.759-22.019-58.368-51.618-65.398 5-1.19 10.22-1.82 15.589-1.82 37.119 0 67.218 30.089 67.218 67.218z" />
    </g>
    <g
       style="fill:#0044aa"
       id="g36">
      <circle
         style="fill:#0044aa"
         id="circle32"
         r="67.218"
         fill="#158f5e"
         cy="248.006"
         cx="437.805" />
      <path
         style="fill:#0044aa"
         id="path34"
         fill="#0f7a4f"
         d="m505.022 248.01c0 37.119-30.099 67.218-67.218 67.218-6.11 0-12.03-.82-17.659-2.35 32.939-4.34 58.358-32.519 58.358-66.638 0-31.009-20.999-57.118-49.558-64.868 2.9-.38 5.86-.58 8.86-.58 37.118 0 67.217 30.089 67.217 67.218z" />
    </g>
    <g
       style="fill:#0055d4"
       id="g48">
      <g
         style="fill:#0055d4"
         id="g44">
        <path
           style="fill:#0055d4"
           id="path38"
           fill="#0f7a4f"
           d="m360.518 449.356c-4.147 0-7.508-3.361-7.508-7.508v-100.249c0-4.147 3.361-7.508 7.508-7.508s7.508 3.361 7.508 7.508v100.249c0 4.147-3.361 7.508-7.508 7.508z" />
        <path
           style="fill:#0055d4"
           id="path40"
           fill="#d2f0a2"
           d="m394.659 367.423c-28.979 0-52.471-23.492-52.471-52.471v-114.759c0-28.979 23.492-52.471 52.471-52.471 28.979 0 52.471 23.492 52.471 52.471v114.758c0 28.98-23.492 52.472-52.471 52.472z" />
        <path
           style="fill:#0055d4"
           id="path42"
           fill="#bcea73"
           d="m447.134 200.191v114.756c0 28.979-23.499 52.478-52.478 52.478-4.45 0-8.77-.55-12.89-1.6 22.749-5.74 39.589-26.349 39.589-50.878v-114.756c0-14.49-5.87-27.609-15.37-37.099-6.58-6.58-14.899-11.42-24.219-13.77 4.12-1.05 8.44-1.6 12.89-1.6 14.49 0 27.609 5.87 37.109 15.37 9.499 9.49 15.369 22.61 15.369 37.099z" />
      </g>
      <path
         style="fill:#87cdde;fill-opacity:1"
         id="path46"
         fill="#a3e440"
         d="m416.595 290.18c-2.933-2.931-7.686-2.931-10.618 0l-3.81 3.81v-16.401c0-.001 0-.003 0-.005v-29.351c0-4.147-3.361-7.508-7.508-7.508s-7.508 3.361-7.508 7.508v11.227l-7.571-7.572c-2.932-2.932-7.686-2.933-10.617-.001-2.933 2.932-2.933 7.686-.001 10.617l18.19 18.191v31.415.01 125.657c0 4.147 3.361 7.508 7.508 7.508s7.508-3.361 7.508-7.508v-122.551l14.428-14.428c2.93-2.932 2.93-7.685-.001-10.618z" />
    </g>
    <g
       id="g58">
      <g
         id="g54">
        <path
           style="fill:#5f8dd3"
           id="path50"
           fill="#d2f0a2"
           d="m127.393 236.129c-28.979 0-52.471-23.492-52.471-52.471v-73.452c0-28.979 23.492-52.471 52.471-52.471 28.979 0 52.471 23.492 52.471 52.471v73.452c.001 28.979-23.492 52.471-52.471 52.471z" />
        <path
           style="fill:#3771c8"
           id="path52"
           fill="#bcea73"
           d="m179.863 110.204v73.458c0 28.979-23.489 52.469-52.468 52.469-4.96 0-9.77-.69-14.32-1.98 22.019-6.23 38.149-26.469 38.149-50.488v-73.458c0-14.49-5.87-27.609-15.369-37.099-6.24-6.25-14.05-10.92-22.779-13.389 4.55-1.29 9.36-1.98 14.32-1.98 14.49 0 27.609 5.87 37.099 15.369 9.498 9.489 15.368 22.609 15.368 37.098z" />
      </g>
      <path
         style="fill:#87cdde"
         id="path56"
         fill="#a3e440"
         d="m149.329 158.886c-2.932-2.931-7.686-2.931-10.617 0l-3.811 3.811v-16.402c0-.001 0-.003 0-.005v-29.35c0-4.147-3.361-7.508-7.508-7.508s-7.508 3.361-7.508 7.508v11.227l-7.572-7.573c-2.932-2.931-7.686-2.931-10.617 0-2.932 2.933-2.932 7.686 0 10.618l18.19 18.19v31.418.005 263.931c0 4.147 3.361 7.508 7.508 7.508s7.508-3.361 7.508-7.508v-260.823l14.428-14.428c2.931-2.933 2.931-7.686-.001-10.619z" />
    </g>
    <g
       id="g70">
      <circle
         style="fill:#3771c8"
         r="79.666"
         id="circle60"
         fill="#1ca56f"
         cy="253.095"
         cx="200.94901" />
      <path
         style="fill:#2c5aa0"
         id="path62"
         fill="#158f5e"
         d="m280.619 253.09c0 43.999-35.669 79.667-79.667 79.667-12.63 0-24.569-2.94-35.179-8.18 37.049-6.84 65.118-39.309 65.118-78.337 0-31.369-18.129-58.498-44.479-71.488 4.71-.87 9.57-1.32 14.54-1.32 43.998 0 79.667 35.669 79.667 79.658z" />
      <path
         style="fill:#87cdde;fill-opacity:1"
         id="path64"
         fill="#0f7a4f"
         d="m224.279 216.655c-2.932-2.931-7.686-2.932-10.617.001l-5.205 5.204v-8.667c0-4.147-3.361-7.508-7.508-7.508s-7.508 3.361-7.508 7.508v79.458c0 4.147 3.361 7.508 7.508 7.508s7.508-3.361 7.508-7.508v-49.557l15.822-15.823c2.932-2.931 2.932-7.683 0-10.616z" />
      <g
         style="fill:#0044aa"
         id="g68">
        <path
           style="fill:#0044aa"
           id="path66"
           fill="#0f7a4f"
           d="m200.949 452.264c-4.146 0-7.508-3.361-7.508-7.508v-71.292c0-4.147 3.361-7.508 7.508-7.508s7.508 3.361 7.508 7.508v71.292c0 4.147-3.361 7.508-7.508 7.508z" />
      </g>
    </g>
    <g
       id="g80">
      <path
         id="path72"
         fill="#a3e440"
         d="m349.753 270.126c0 92.327-23.688 90.68-52.909 90.68s-52.909 1.647-52.909-90.68 29.857-196.494 52.909-196.494 52.909 104.167 52.909 196.494z" />
      <path
         style="fill:#2a7fff"
         id="path74"
         fill="#a3e440"
         d="m349.753 270.126c0 92.327-23.688 90.68-52.909 90.68s-52.909 1.647-52.909-90.68 29.857-196.494 52.909-196.494 52.909 104.167 52.909 196.494z" />
      <path
         style="fill:#0055d4"
         id="path76"
         fill="#99d53b"
         d="m349.748 270.124c0 92.332-23.682 90.681-52.904 90.681-4.759 0-9.381.046-13.774-.287 22.535-1.675 39.13-13.132 39.13-90.394 0-74.591-19.496-156.899-39.13-185.777 4.668-6.87 9.347-10.712 13.774-10.712 23.051.001 52.904 104.169 52.904 196.489z" />
      <path
         style="fill:#87cdde;fill-opacity:1"
         id="path78"
         fill="#88ba31"
         d="m328.708 279.854c-2.933-2.931-7.686-2.931-10.618 0l-13.738 13.738v-28.744c0-.003 0-.007 0-.01v-33.816c0-4.147-3.361-7.508-7.508-7.508s-7.508 3.361-7.508 7.508v15.695l-10.678-10.678c-2.933-2.931-7.686-2.931-10.618 0-2.932 2.933-2.932 7.686 0 10.618l21.296 21.296v43.76.01 130.125c0 4.147 3.361 7.508 7.508 7.508s7.508-3.361 7.508-7.508v-127.02l24.356-24.356c2.932-2.932 2.932-7.685 0-10.618z" />
    </g>
    <g
       id="g88">
      <path
         id="path82"
         fill="#a3e440"
         d="m8.038 337.498c0 71.114 32.054 69.845 71.594 69.845s71.594 1.269 71.594-69.845-40.401-151.346-71.594-151.346-71.594 80.232-71.594 151.346z" />
      <path
         style="fill:#2a7fff;fill-opacity:1"
         id="path84"
         fill="#99d53b"
         d="m8.038 337.498c0 71.114 32.054 69.845 71.594 69.845s71.594 1.269 71.594-69.845-40.401-151.346-71.594-151.346-71.594 80.232-71.594 151.346z" />
      <path
         style="fill:#0055d4;fill-opacity:1"
         id="path86"
         fill="#8dc637"
         d="m151.223 337.497c0 71.118-32.049 69.848-71.588 69.848-5.14 0-10.14.02-14.969-.1 32.349-.79 56.618-7.87 56.618-69.748 0-60.098-28.849-126.706-56.618-145.895 5.09-3.53 10.14-5.45 14.969-5.45 31.19 0 71.588 80.228 71.588 151.345z" />
    </g>
    <g
       id="g98">
      <path
         id="path90"
         fill="#a3e440"
         d="m219.496 340.171c0 52.554-23.688 51.616-52.909 51.616s-52.909.938-52.909-51.616 29.857-111.846 52.909-111.846 52.909 59.292 52.909 111.846z" />
      <path
         style="fill:#2a7fff"
         id="path92"
         fill="#a3e440"
         d="m219.496 340.171c0 52.554-23.688 51.616-52.909 51.616s-52.909.938-52.909-51.616 29.857-111.846 52.909-111.846 52.909 59.292 52.909 111.846z" />
      <path
         style="fill:#0055d4;fill-opacity:1"
         id="path94"
         fill="#99d53b"
         d="m219.491 340.167c0 52.558-23.679 51.618-52.908 51.618-5.45 0-10.7.03-15.649-.26 21.579-1.25 37.259-8.6 37.259-51.358 0-41.109-18.269-86.337-37.259-104.097 5.28-4.94 10.63-7.75 15.649-7.75 23.059.001 52.908 59.299 52.908 111.847z" />
      <path
         style="fill:#87cdde"
         id="path96"
         fill="#88ba31"
         d="m198.451 326.323c-2.931-2.931-7.685-2.931-10.617 0l-13.739 13.739v-36.756c0-4.147-3.361-7.508-7.508-7.508s-7.508 3.361-7.508 7.508v54.879.005 83.659c0 4.147 3.361 7.508 7.508 7.508s7.508-3.361 7.508-7.508v-80.552l24.356-24.356c2.932-2.932 2.932-7.685 0-10.618z" />
    </g>
    <g
       id="g108">
      <path
         id="path100"
         fill="#a3e440"
         d="m501.49 365.772c0 37.876-17.072 37.201-38.132 37.201s-38.132.676-38.132-37.201 21.518-80.609 38.132-80.609 38.132 42.733 38.132 80.609z" />
      <path
         style="fill:#5599ff"
         id="path102"
         fill="#a3e440"
         d="m501.49 365.772c0 37.876-17.072 37.201-38.132 37.201s-38.132.676-38.132-37.201 21.518-80.609 38.132-80.609 38.132 42.733 38.132 80.609z" />
      <path
         style="fill:#2a7fff"
         id="path104"
         fill="#99d53b"
         d="m501.492 365.776c0 37.869-17.079 37.199-38.139 37.199-4.48 0-8.78.03-12.77-.29 14.78-1.17 25.349-7.1 25.349-36.909 0-28.549-12.22-59.848-25.349-73.548 4.28-4.48 8.67-7.07 12.77-7.07 16.62.001 38.139 42.739 38.139 80.618z" />
      <path
         style="fill:#87cdde;fill-opacity:1"
         id="path106"
         fill="#88ba31"
         d="m483.198 358.915c-2.931-2.931-7.685-2.932-10.617.001l-1.715 1.715v-21.427c0-4.147-3.361-7.508-7.508-7.508s-7.508 3.361-7.508 7.508v39.552.005 63.089c0 4.147 3.361 7.508 7.508 7.508s7.508-3.361 7.508-7.508v-59.982l12.333-12.334c2.931-2.933 2.931-7.687-.001-10.619z" />
    </g>
    <path
       style="fill:#87cdde"
       id="path110"
       fill="#88ba31"
       d="m98.668 309.904c2.932-2.933 2.932-7.686 0-10.618-2.932-2.931-7.686-2.931-10.617 0l-.911.911v-20.668c0-4.147-3.361-7.508-7.508-7.508s-7.508 3.361-7.508 7.508v64.223l-9.453-9.453c-2.932-2.931-7.686-2.931-10.617 0-2.932 2.933-2.932 7.686 0 10.618l20.071 20.07v76.862c0 4.147 3.361 7.508 7.508 7.508s7.508-3.361 7.508-7.508v-79.97c0-.001 0-.003 0-.005v-40.442z" />
    <g
       style="fill:#0044aa"
       id="g116">
      <g
         style="fill:#0044aa"
         id="g114">
        <path
           style="fill:#0044aa"
           id="path112"
           fill="#0a5b36"
           d="m504.492 454.266h-496.984c-4.146 0-7.508-3.361-7.508-7.508s3.361-7.508 7.508-7.508h496.984c4.147 0 7.508 3.361 7.508 7.508s-3.361 7.508-7.508 7.508z" />
      </g>
    </g>
  </g>
</svg>
